<?xml version="1.0" encoding="UTF-8" standalone="no"?><svg version="1.1" id="Réteg_1" xmlns="http://www.w3.org/2000/svg" xmlns:xlink="http://www.w3.org/1999/xlink" x="0px" y="0px" viewBox="0 0 878 203" style="enable-background:new 0 0 878 203;" xml:space="preserve"><style type="text/css">.st0{fill:none;}.st1{fill:#DA3843;}.st2{fill:#FFFFFF;}</style><g><rect id="canvas_background" x="-1" y="-1" class="st0" width="880" height="205"/></g><path id="svg_1" class="st1" d="M177.5,1.5C122,1.5,77,46.5,77,102s45,100.5,100.5,100.5S278,157.5,278,102S233,1.5,177.5,1.5z	M177.5,127.1c-14,0-25.1-11.1-25.1-25.1s11.1-25.1,25.1-25.1S202.6,88,202.6,102S190.9,127.1,177.5,127.1z M1,102c0-14,11.1-25.1,25.1-25.1S51.3,88,51.3,102s-11.1,25.1-25.1,25.1S1,116,1,102"/><path id="svg_2" class="st2" d="M517.6,82.7c15.2,0,26.3,11.1,26.3,26.3v3.5c0,1.8-1.8,2.3-2.9,2.3h-36.8c0,7,5.8,13.4,14,13.4c5.8,0,9.9-2.3,12.3-4.1c1.2-1.2,2.9-1.2,3.5,0l4.7,6.4c1.2,1.2,1.2,2.3,0,3.5c-5.3,4.1-12.3,7.6-21.6,7.6c-16.9,0-29.2-13.4-29.2-29.8C489,96.2,500.7,82.7,517.6,82.7z M528.1,105.5c0-5.8-4.7-9.9-11.1-9.9c-7,0-11.7,4.1-12.3,9.9H528.1L528.1,105.5z M667.2,60.5h-58.4c-1.2,0-2.3,1.2-2.3,2.3v9.9c0,1.2,1.2,2.3,2.3,2.3h21v63.7c0,1.2,1.2,2.3,2.3,2.3h11.7c1.2,0,2.3-1.2,2.3-2.3V75.6h21c1.2,0,2.3-1.2,2.3-2.3v-9.9C670.2,61.7,669,60.5,667.2,60.5L667.2,60.5z M755.5,82.7c-5.8,0-11.7,1.2-14,2.3V63.4c0-1.2-1.2-2.9-2.9-2.9h-9.9c-1.2,0-2.9,1.2-2.9,2.9v75.4c0,1.8,1.2,2.9,2.9,2.9h5.3c1.8,0,2.9-1.2,2.9-2.9v-4.1c0,0,6.4,8.8,19.3,8.8c15.8,0,26.9-13.4,26.9-29.8C783.5,95.6,772.4,82.7,755.5,82.7z M754.3,128.3c-7.6,0-11.7-4.7-12.9-8.2V99.6c0,0,4.7-3.5,11.7-3.5c9.4,0,14,7.6,14,15.8C767.8,120.7,763.1,128.3,754.3,128.3z M851.3,82.7c15.2,0,26.3,11.1,26.3,26.3v3.5c0,1.8-1.8,2.3-2.9,2.3h-36.8c0,7,5.8,13.4,14,13.4c5.8,0,9.9-2.3,12.3-4.1c1.2-1.2,2.9-1.2,3.5,0l4.7,6.4c1.2,1.2,1.2,2.3,0,3.5c-5.3,4.1-12.3,7.6-21.6,7.6c-16.9,0-29.2-13.4-29.2-29.8C822.1,96.2,834.4,82.7,851.3,82.7z	M861.8,105.5c0-5.8-4.7-9.9-11.1-9.9c-7,0-11.7,4.1-12.3,9.9H861.8L861.8,105.5z M452.2,82.7c-11.7,0-18.1,8.2-18.7,8.8v-4.7c0-1.8-1.2-2.9-2.9-2.9h-5.8c-1.8,0-2.9,1.2-2.9,2.9v75.4c0,1.2,1.2,2.9,2.9,2.9h9.9c1.2,0,2.9-1.2,2.9-2.9v-21.6c2.3,1.2,8.2,2.3,14,2.3c16.9,0,28.6-13.4,28.6-29.8C479.6,95.6,467.9,82.7,452.2,82.7z M449.2,128.3c-7,0-11.7-3.5-11.7-3.5v-20.5c1.2-3.5,5.3-8.2,12.9-8.2c8.8,0,13.4,7.6,13.4,15.8C463.9,120.7,458.6,128.3,449.2,128.3L449.2,128.3z M586,82.7c-11.1,0-16.4,5.8-18.7,8.2v-4.1c0-1.8-1.2-2.9-2.9-2.9H558c-1.2,0-2.9,1.2-2.9,2.9v52c0,1.8,1.2,2.9,2.9,2.9h9.9c2.9,0,3.5-0.6,3.5-2.9v-32.7c1.2-4.1,5.3-8.8,12.3-8.8s9.9,4.7,9.9,12.3v29.8c0,1.8,1.2,2.9,2.9,2.9h9.9c1.2,0,2.9-1.2,2.9-2.9v-29.8C609.4,95,604.7,82.7,586,82.7L586,82.7z M690.6,82.7c-9.4,0-18.1,2.3-19.9,2.9c-1.2,0.6-2.3,1.2-1.8,3.5l1.2,6.4c0,1.8,1.2,2.9,3.5,2.3c3.5-1.2,11.1-2.3,16.4-2.3c5.8,0,8.2,3.5,8.2,10.5c0,0-5.3-1.8-11.1-1.8c-14.6,0-22.8,7.6-22.8,18.1c0,12.3,8.2,19.9,19.3,19.9c8.8,0,14.6-4.1,18.1-7v2.9c0,1.8,1.2,2.9,2.9,2.9h5.9c1.8,0,2.9-1.2,2.9-2.9v-31C712.2,92.1,708.1,82.7,690.6,82.7L690.6,82.7z M697,124.8c-0.6,2.3-5.3,5.8-10.5,5.8c-5.3,0-8.2-3.5-8.2-8.2c0-5.3,3.5-8.2,9.9-8.2c4.7,0,8.2,1.8,8.2,1.8v8.8L697,124.8L697,124.8z M369.2,60.5c-22.8,0-40.9,18.7-40.9,41.5s18.1,40.9,40.9,40.9c23.4,0,41.5-18.1,41.5-40.9S392,60.5,369.2,60.5z M369.2,76.3c13.4,0,25.1,11.7,25.1,25.1c0,14-11.1,25.1-25.1,25.1s-25.1-11.1-25.1-25.1C344.1,88,355.7,76.3,369.2,76.3z M812.2,141.2c1.8,0,2.9-1.2,2.9-2.9v-9.9c0-1.8-1.2-2.9-2.9-2.9h-0.6c-1.2,0-2.3-1.2-2.3-2.3V63.6c0-1.2-1.2-2.9-2.9-2.9h-9.9c-1.2,0-2.9,1.2-2.9,2.9V132c0,4.7,4.7,9.9,9.9,9.9L812.2,141.2L812.2,141.2z"/></svg>