<?xml version="1.0" encoding="UTF-8" standalone="no"?><svg width="878" height="203" xmlns="http://www.w3.org/2000/svg"><g><title>background</title><rect fill="none" id="canvas_background" height="205" width="880" y="-1" x="-1"/></g><g><title>Layer 1</title><path id="svg_1" fill="#da3843" d="m177.5,1.5c-55.5,0 -100.5,45 -100.5,100.5s45,100.5 100.5,100.5s100.5,-45 100.5,-100.5s-45,-100.5 -100.5,-100.5zm0,125.6c-14,0 -25.1,-11.1 -25.1,-25.1s11.1,-25.1 25.1,-25.1s25.1,11.1 25.1,25.1s-11.7,25.1 -25.1,25.1zm-176.5,-25.1c0,-14 11.1,-25.1 25.1,-25.1s25.2,11.1 25.2,25.1s-11.1,25.1 -25.1,25.1s-25.2,-11.1 -25.2,-25.1"/><path id="svg_2" fill="#212120" d="m517.6,82.7c15.2,0 26.3,11.1 26.3,26.3l0,3.5c0,1.8 -1.8,2.3 -2.9,2.3l-36.8,0c0,7 5.8,13.4 14,13.4c5.8,0 9.9,-2.3 12.3,-4.1c1.2,-1.2 2.9,-1.2 3.5,0l4.7,6.4c1.2,1.2 1.2,2.3 0,3.5c-5.3,4.1 -12.3,7.6 -21.6,7.6c-16.9,0 -29.2,-13.4 -29.2,-29.8c1.1,-15.6 12.8,-29.1 29.7,-29.1zm10.5,22.8c0,-5.8 -4.7,-9.9 -11.1,-9.9c-7,0 -11.7,4.1 -12.3,9.9l23.4,0zm139.1,-45l-58.4,0c-1.2,0 -2.3,1.2 -2.3,2.3l0,9.9c0,1.2 1.2,2.3 2.3,2.3l21,0l0,63.7c0,1.2 1.2,2.3 2.3,2.3l11.7,0c1.2,0 2.3,-1.2 2.3,-2.3l0,-63.1l21,0c1.2,0 2.3,-1.2 2.3,-2.3l0,-9.9c0.8,-1.7 -0.4,-2.9 -2.2,-2.9zm88.3,22.2c-5.8,0 -11.7,1.2 -14,2.3l0,-21.6c0,-1.2 -1.2,-2.9 -2.9,-2.9l-9.9,0c-1.2,0 -2.9,1.2 -2.9,2.9l0,75.4c0,1.8 1.2,2.9 2.9,2.9l5.3,0c1.8,0 2.9,-1.2 2.9,-2.9l0,-4.1s6.4,8.8 19.3,8.8c15.8,0 26.9,-13.4 26.9,-29.8c0.4,-18.1 -10.7,-31 -27.6,-31zm-1.2,45.6c-7.6,0 -11.7,-4.7 -12.9,-8.2l0,-20.5s4.7,-3.5 11.7,-3.5c9.4,0 14,7.6 14,15.8c0.7,8.8 -4,16.4 -12.8,16.4zm97,-45.6c15.2,0 26.3,11.1 26.3,26.3l0,3.5c0,1.8 -1.8,2.3 -2.9,2.3l-36.8,0c0,7 5.8,13.4 14,13.4c5.8,0 9.9,-2.3 12.3,-4.1c1.2,-1.2 2.9,-1.2 3.5,0l4.7,6.4c1.2,1.2 1.2,2.3 0,3.5c-5.3,4.1 -12.3,7.6 -21.6,7.6c-16.9,0 -29.2,-13.4 -29.2,-29.8c0.5,-15.6 12.8,-29.1 29.7,-29.1zm10.5,22.8c0,-5.8 -4.7,-9.9 -11.1,-9.9c-7,0 -11.7,4.1 -12.3,9.9l23.4,0zm-409.6,-22.8c-11.7,0 -18.1,8.2 -18.7,8.8l0,-4.7c0,-1.8 -1.2,-2.9 -2.9,-2.9l-5.8,0c-1.8,0 -2.9,1.2 -2.9,2.9l0,75.4c0,1.2 1.2,2.9 2.9,2.9l9.9,0c1.2,0 2.9,-1.2 2.9,-2.9l0,-21.6c2.3,1.2 8.2,2.3 14,2.3c16.9,0 28.6,-13.4 28.6,-29.8c-0.6,-17.5 -12.3,-30.4 -28,-30.4zm-3,45.6c-7,0 -11.7,-3.5 -11.7,-3.5l0,-20.5c1.2,-3.5 5.3,-8.2 12.9,-8.2c8.8,0 13.4,7.6 13.4,15.8c0.1,8.8 -5.2,16.4 -14.6,16.4zm136.8,-45.6c-11.1,0 -16.4,5.8 -18.7,8.2l0,-4.1c0,-1.8 -1.2,-2.9 -2.9,-2.9l-6.4,0c-1.2,0 -2.9,1.2 -2.9,2.9l0,52c0,1.8 1.2,2.9 2.9,2.9l9.9,0c2.9,0 3.5,-0.6 3.5,-2.9l0,-32.7c1.2,-4.1 5.3,-8.8 12.3,-8.8s9.9,4.7 9.9,12.3l0,29.8c0,1.8 1.2,2.9 2.9,2.9l9.9,0c1.2,0 2.9,-1.2 2.9,-2.9l0,-29.8c0.1,-14.6 -4.6,-26.9 -23.3,-26.9zm104.6,0c-9.4,0 -18.1,2.3 -19.9,2.9c-1.2,0.6 -2.3,1.2 -1.8,3.5l1.2,6.4c0,1.8 1.2,2.9 3.5,2.3c3.5,-1.2 11.1,-2.3 16.4,-2.3c5.8,0 8.2,3.5 8.2,10.5c0,0 -5.3,-1.8 -11.1,-1.8c-14.6,0 -22.8,7.6 -22.8,18.1c0,12.3 8.2,19.9 19.3,19.9c8.8,0 14.6,-4.1 18.1,-7l0,2.9c0,1.8 1.2,2.9 2.9,2.9l5.9,0c1.8,0 2.9,-1.2 2.9,-2.9l0,-31c-1.2,-15 -5.3,-24.4 -22.8,-24.4zm6.4,42.1c-0.6,2.3 -5.3,5.8 -10.5,5.8c-5.3,0 -8.2,-3.5 -8.2,-8.2c0,-5.3 3.5,-8.2 9.9,-8.2c4.7,0 8.2,1.8 8.2,1.8l0,8.8l0.6,0zm-327.8,-64.3c-22.8,0 -40.9,18.7 -40.9,41.5s18.1,40.9 40.9,40.9c23.4,0 41.5,-18.1 41.5,-40.9s-18.7,-41.5 -41.5,-41.5zm0,15.8c13.4,0 25.1,11.7 25.1,25.1c0,14 -11.1,25.1 -25.1,25.1s-25.1,-11.1 -25.1,-25.1c0,-13.4 11.6,-25.1 25.1,-25.1zm443,64.9c1.8,0 2.9,-1.2 2.9,-2.9l0,-9.9c0,-1.8 -1.2,-2.9 -2.9,-2.9l-0.6,0c-1.2,0 -2.3,-1.2 -2.3,-2.3l0,-59.6c0,-1.2 -1.2,-2.9 -2.9,-2.9l-9.9,0c-1.2,0 -2.9,1.2 -2.9,2.9l0,68.4c0,4.7 4.7,9.9 9.9,9.9l8.7,-0.7z"/></g></svg>